<svg width="36" height="36" viewBox="0 0 275 275" fill="none" xmlns="http://www.w3.org/2000/svg">
<g filter="url(#filter0_d_1024_195)">
<path d="M230.37 196.867L232.816 200.546L234.94 204.227L236.614 211.613L236.167 215.639L235.236 219.508L233.499 223.224L230.635 226.788L227.28 229.553L223.756 231.193L219.744 232.355L215.726 232.873L207.988 231.011L204.269 228.952L201.032 226.729L196.975 222.742L192.593 218.437L183.644 207.094L190.682 202.527L198.025 196.027L204.873 188.083L211.074 179.823L216.256 183.639L218.847 185.546L221.281 187.938L223.713 190.008L225.985 192.24L230.37 196.867Z" fill="url(#paint0_linear_1024_195)"/>
<path d="M116.17 21.1325L117.084 16.8151L118.227 12.7249L122.342 6.36246L125.542 3.86292L128.971 1.81785L132.857 0.454461L137.428 0L141.772 0.454461L145.429 1.81785L149.086 3.86292L152.287 6.36246L156.401 13.1794L157.544 17.2695L158.23 21.1325V26.8132V32.9484L156.401 47.264L148.172 45.4461L138.343 44.7644L127.828 45.4461L117.541 46.8095L116.627 40.4471L116.17 37.2658V33.8574L115.941 30.6761V27.4949L116.17 21.1325Z" fill="url(#paint1_linear_1024_195)"/>
<path d="M158.001 244.209L157.087 248.526L155.944 252.617L151.829 258.979L148.629 261.479L145.2 263.524L141.314 264.887L136.743 265.342L132.399 264.887L128.742 263.524L125.085 261.479L121.884 258.979L117.77 252.162L116.627 248.072L115.941 244.209V238.528V232.393L117.77 218.078L125.999 219.895L135.828 220.577L146.343 219.895L156.63 218.532L157.544 224.894L158.001 228.076V231.484L158.23 234.665V237.847L158.001 244.209Z" fill="url(#paint2_linear_1024_195)"/>
<path d="M249.84 111.931L254.155 112.878L258.24 114.05L264.576 118.2L267.051 121.406L269.069 124.836L270.401 128.715L270.817 133.269L270.326 137.588L268.929 141.216L266.851 144.839L264.321 148.003L257.461 152.039L253.356 153.142L249.483 153.791L243.795 153.743L237.653 153.69L223.336 151.748L225.226 143.573L225.992 133.797L225.399 123.326L224.121 113.076L230.499 112.221L233.688 111.793L237.1 111.822L240.287 111.622L243.472 111.649L249.84 111.931Z" fill="url(#paint3_linear_1024_195)"/>
<path d="M201.389 38.8607L205.076 36.4282L208.765 34.3175L216.157 32.67L220.181 33.1315L224.047 34.0765L227.757 35.8267L231.311 38.7039L234.063 42.0679L235.691 45.5986L236.838 49.6145L237.342 53.6338L235.452 61.3658L233.38 65.0768L231.144 68.306L227.144 72.3489L222.823 76.7152L211.447 85.623L206.906 78.5683L200.432 71.2019L192.513 64.3257L184.276 58.0947L188.11 52.9265L190.027 50.3424L192.427 47.9167L194.506 45.4927L196.746 43.2287L201.389 38.8607Z" fill="url(#paint4_linear_1024_195)"/>
<path d="M44.465 68.5299L41.9724 64.8829L39.8014 61.2289L38.0329 53.8653L38.4283 49.8339L39.3097 45.9529L40.9988 42.2154L43.8173 38.6143L47.1357 35.8069L50.6392 34.122L54.6358 32.909L58.6462 32.3395L66.4082 34.1023L70.1527 36.1131L73.4182 38.2952L77.5262 42.229L81.9628 46.4776L91.0561 57.7055L84.0768 62.3621L76.8176 68.9558L70.0723 76.9865L63.9772 85.325L58.7469 81.5764L56.1317 79.7021L53.6669 77.3417L51.2091 75.3031L48.9086 73.1001L44.465 68.5299Z" fill="url(#paint5_linear_1024_195)"/>
<path d="M25.1594 152.772L20.8521 151.791L16.776 150.587L10.4734 146.389L8.02309 143.163L6.03145 139.717L4.72968 135.828L4.34897 131.271L4.87446 126.956L6.29874 123.339L8.40547 119.733L10.9597 116.589L17.851 112.605L21.9642 111.535L25.8425 110.915L31.5295 111.008L37.6715 111.108L51.973 113.162L50.0195 121.322L49.1775 131.092L49.6891 141.568L50.8869 151.826L44.5026 152.632L41.3105 153.035L37.8983 152.98L34.7099 153.155L31.5251 153.103L25.1594 152.772Z" fill="url(#paint6_linear_1024_195)"/>
<path d="M72.6135 225.153L68.9028 227.55L65.1935 229.625L57.7862 231.201L53.7666 230.701L49.9099 229.718L46.2176 227.932L42.6912 225.021L39.9713 221.631L38.3782 218.084L37.2698 214.058L36.805 210.034L38.7695 202.32L40.8772 198.629L43.1437 195.422L47.1832 191.418L51.546 187.094L63.007 178.296L67.4802 185.394L73.8824 192.823L81.7346 199.775L89.9115 206.085L86.0278 211.216L84.0859 213.782L81.6622 216.184L79.5602 218.588L77.298 220.83L72.6135 225.153Z" fill="url(#paint7_linear_1024_195)"/>
<path d="M176.908 8.64551L182.823 8.64551L185.781 9.32805L188.511 10.4657L191.469 12.0582L194.426 14.3333L198.038 20.2895L199.432 24.1162L199.887 28.8939L199.432 34.1267L198.977 36.8568L198.038 39.1319L182.824 57.3328L171.447 51.8726L158.479 47.5499L159.845 34.5817L160.3 20.931L163.486 16.3808L167.353 12.5131L171.903 9.78307L176.908 8.64551Z" fill="url(#paint8_linear_1024_195)"/>
<path d="M253.012 73.0371L257.21 77.2051L258.828 79.7734L259.963 82.5044L260.94 85.7184L261.436 89.4168L259.801 96.1878L258.094 99.8859L255.051 103.597L251.041 106.989L248.794 108.606L246.525 109.558L222.905 111.754L218.679 99.8624L212.522 87.6576L222.63 79.4182L232.571 70.0527L238.038 69.0683L243.507 69.049L248.659 70.3176L253.012 73.0371Z" fill="url(#paint9_linear_1024_195)"/>
<path d="M13.8051 91.4358L14.0663 85.5263L14.8787 82.6017L16.1357 79.9245L17.8573 77.04L20.2607 74.1857L26.3706 70.8409L30.2551 69.6167L35.0483 69.373L40.2559 70.0586L42.9632 70.6337L45.1946 71.6728L62.7061 87.6752L56.7489 98.8003L51.8579 111.565L38.9627 109.627L25.3454 108.57L20.9403 105.187L17.2471 101.152L14.7206 96.4864L13.8051 91.4358Z" fill="url(#paint10_linear_1024_195)"/>
<path d="M77.9473 16.464L82.1522 12.3035L84.7347 10.7085L87.4756 9.59693L90.6981 8.64874L94.4007 8.18577L101.157 9.87984L104.84 11.6192L108.524 14.6954L111.881 18.7351L113.477 20.9959L114.41 23.274L116.396 46.9125L104.468 51.0332L92.2098 57.0814L84.06 46.9019L74.7826 36.8781L73.8464 31.4033L73.8754 25.9337L75.1894 20.793L77.9473 16.464Z" fill="url(#paint11_linear_1024_195)"/>
<path d="M261.376 171.23L261.514 177.144L260.902 180.117L259.828 182.873L258.306 185.867L256.101 188.877L250.231 192.627L246.438 194.111L241.672 194.678L236.43 194.346L233.69 193.956L231.394 193.07L212.841 178.287L218.032 166.785L222.049 153.719L235.046 154.781L248.704 154.915L253.327 157.993L257.285 161.769L260.121 166.253L261.376 171.23Z" fill="url(#paint12_linear_1024_195)"/>
<path d="M19.7913 190.669L15.9957 186.132L14.6213 183.426L13.742 180.602L13.0656 177.312L12.9127 173.583L15.1638 166.992L17.2039 163.466L20.5764 160.052L24.8818 157.043L27.2677 155.64L29.6156 154.901L52.2321 153.797L57.0098 166.992L62.2425 177.913L50.6327 187.114L42.9041 194.522L39.8708 195.524L34.337 196L28.8888 195.516L23.8755 193.778L19.7913 190.669Z" fill="url(#paint13_linear_1024_195)"/>
<path d="M96.7169 257.236L90.8093 256.934L87.8903 256.102L85.2217 254.827L82.3491 253.086L79.5113 250.663L76.2083 244.53L75.0106 240.637L74.7996 235.843L75.5208 230.64L76.1144 227.936L77.1687 225.712L91.7369 208.377L104.661 213.845L116.227 217.434L115.08 232.203L115.257 242.907L113.929 245.813L110.516 250.195L106.457 253.86L101.774 256.355L96.7169 257.236Z" fill="url(#paint14_linear_1024_195)"/>
<path d="M197.301 249.906L192.982 253.947L190.355 255.469L187.585 256.504L184.337 257.361L180.623 257.72L173.916 255.838L170.284 253.996L166.687 250.818L163.445 246.686L161.912 244.381L161.044 242.078L158.935 217.728L171.22 213.86L182.368 208.172L192.043 219.309L199.868 226.615L201.036 229.588L201.819 235.087L201.637 240.554L200.179 245.656L197.301 249.906Z" fill="url(#paint15_linear_1024_195)"/>
<path d="M225.724 132.256C225.724 180.289 186.415 219.236 137.915 219.236C89.4146 219.236 50.1056 180.289 50.1056 132.256C50.1056 84.223 89.4146 45.2764 137.915 45.2764C186.415 45.2764 225.724 84.223 225.724 132.256Z" fill="url(#paint16_linear_1024_195)" stroke="black"/>
<path d="M130.916 114.572L130.915 114.572L130.913 114.583L130.234 118.431L128.424 125.446L125.939 132.677L123.08 138.396L117.844 140.577L115.211 141.016L112.067 141.016L108.915 141.016L105.572 140.57L102.453 139.679L99.5208 138.409L93.6685 123.635L91.6331 111.649L91.1815 106.231L91.1815 100.577L91.6311 92.0358L94.7539 84.8975L98.1035 80.6548L101.652 77.3279L106.31 75.3318L110.951 74.2267L115.355 74.8872L119.559 76.436L123.347 79.3325L126.933 82.6941L129.138 85.7822L130.249 88.893L131.597 93.1601L132.043 97.1791L132.043 104.188L131.592 111.192L130.916 114.572Z" fill="white" stroke="black"/>
<path d="M179.619 114.576L179.619 114.576L179.617 114.587L178.938 118.436L177.127 125.451L174.642 132.681L171.783 138.4L166.547 140.582L163.915 141.02L160.771 141.02L157.619 141.02L154.275 140.575L151.157 139.684L148.224 138.414L142.372 123.639L140.337 111.654L139.885 106.236L139.885 100.582L140.335 92.0404L143.457 84.9022L146.807 80.6595L150.356 77.3325L155.013 75.3365L159.655 74.2313L164.059 74.8919L168.263 76.4406L172.05 79.3371L175.636 82.6988L177.842 85.7869L178.953 88.8976L180.3 93.1647L180.747 97.1838L180.747 104.193L180.295 111.196L179.619 114.576Z" fill="white" stroke="black"/>
<ellipse cx="96.3692" cy="150.157" rx="10.9205" ry="5.46026" fill="#F1667C"/>
<ellipse cx="178.728" cy="150.157" rx="10.9205" ry="5.46026" fill="#F1667C"/>
<ellipse cx="110.137" cy="111.112" rx="11.6087" ry="16.5839" fill="black"/>
<ellipse cx="160.717" cy="111.526" rx="11.6087" ry="16.9984" fill="black"/>
<ellipse cx="104.525" cy="101.443" rx="5.91528" ry="8.64541" transform="rotate(16.7504 104.525 101.443)" fill="white"/>
<ellipse cx="155.033" cy="103.718" rx="5.91528" ry="8.64541" transform="rotate(16.7504 155.033 103.718)" fill="white"/>
<path d="M89.5137 80.2214L89.8541 82.0239L90.7731 83.5447L91.9071 85.1398L93.9834 86.0975L93.5378 87.3878L92.0324 86.8679L91.0314 86.2816L89.4673 84.5379L88.6226 82.8021L88.208 81.2146L88.2157 80.4952L88.6536 79.9244L89.5137 80.2214Z" fill="black"/>
<path d="M181.801 78.4011L181.46 80.2036L180.541 81.7244L179.407 83.3195L177.331 84.2772L177.777 85.5675L179.282 85.0476L180.283 84.4612L181.847 82.7176L182.692 80.9817L183.106 79.3943L183.099 78.6749L182.661 78.104L181.801 78.4011Z" fill="black"/>
<path d="M87.6623 83.849L88.044 85.6432L88.9976 87.1425L90.1679 88.7112L92.2656 89.621L91.8497 90.9211L90.3329 90.436L89.3187 89.8727L87.715 88.1654L86.8307 86.4494L86.3797 84.8719L86.3709 84.1525L86.7956 83.5718L87.6623 83.849Z" fill="black"/>
<path d="M183.653 82.0289L183.271 83.8231L182.317 85.3224L181.147 86.8911L179.049 87.8009L179.465 89.1011L180.982 88.6159L181.996 88.0527L183.6 86.3454L184.484 84.6293L184.935 83.0519L184.944 82.3325L184.519 81.7517L183.653 82.0289Z" fill="black"/>
<path d="M110.137 165.783L163.205 161.693L160.282 182.757L158.766 190.119L155.335 197.482L154.327 198.709L152.914 200.14L150.695 202.595L145.852 205.867L142.018 207.298H137.175H133.341L129.306 206.685L123.454 204.026L118.41 199.527L113.97 191.142L111.146 182.757L110.54 174.372L110.137 170.078V167.623V165.783Z" fill="black"/>
<ellipse cx="138.3" cy="201.401" rx="9.39109" ry="4.8997" transform="rotate(-6.8109 138.3 201.401)" fill="#F43939"/>
<path d="M115.941 166.431L159.888 162.522L154.295 166.431L147.303 169.471L142.509 170.774L137.315 171.643L124.331 171.426L119.736 169.688L117.539 168.385L115.941 166.431Z" fill="white"/>
</g>
<defs>
<filter id="filter0_d_1024_195" x="0.348999" y="0" width="274.468" height="274.342" filterUnits="userSpaceOnUse" color-interpolation-filters="sRGB">
<feFlood flood-opacity="0" result="BackgroundImageFix"/>
<feColorMatrix in="SourceAlpha" type="matrix" values="0 0 0 0 0 0 0 0 0 0 0 0 0 0 0 0 0 0 127 0" result="hardAlpha"/>
<feOffset dy="5"/>
<feGaussianBlur stdDeviation="2"/>
<feComposite in2="hardAlpha" operator="out"/>
<feColorMatrix type="matrix" values="0 0 0 0 0 0 0 0 0 0 0 0 0 0 0 0 0 0 0.25 0"/>
<feBlend mode="normal" in2="BackgroundImageFix" result="effect1_dropShadow_1024_195"/>
<feBlend mode="normal" in="SourceGraphic" in2="effect1_dropShadow_1024_195" result="shape"/>
</filter>
<linearGradient id="paint0_linear_1024_195" x1="230.874" y1="226.545" x2="197.117" y2="193.38" gradientUnits="userSpaceOnUse">
<stop offset="0.00520833" stop-color="#BCDFFF"/>
<stop offset="0.00530833" stop-color="#4E7FBF"/>
<stop offset="0.994792" stop-color="#96B9D9"/>
</linearGradient>
<linearGradient id="paint1_linear_1024_195" x1="137.085" y1="0" x2="137.085" y2="47.264" gradientUnits="userSpaceOnUse">
<stop offset="0.00520833" stop-color="#BCDFFF"/>
<stop offset="0.00530833" stop-color="#4E7FBF"/>
<stop offset="0.994792" stop-color="#96B9D9"/>
</linearGradient>
<linearGradient id="paint2_linear_1024_195" x1="137.085" y1="265.342" x2="137.085" y2="218.078" gradientUnits="userSpaceOnUse">
<stop offset="0.00520833" stop-color="#BCDFFF"/>
<stop offset="0.00530833" stop-color="#4E7FBF"/>
<stop offset="0.994792" stop-color="#96B9D9"/>
</linearGradient>
<linearGradient id="paint3_linear_1024_195" x1="270.82" y1="132.928" x2="223.5" y2="132.524" gradientUnits="userSpaceOnUse">
<stop offset="0.00520833" stop-color="#BCDFFF"/>
<stop offset="0.00530833" stop-color="#4E7FBF"/>
<stop offset="0.994792" stop-color="#96B9D9"/>
</linearGradient>
<linearGradient id="paint4_linear_1024_195" x1="231.068" y1="38.4638" x2="197.782" y2="72.1006" gradientUnits="userSpaceOnUse">
<stop offset="0.00520833" stop-color="#BCDFFF"/>
<stop offset="0.00530833" stop-color="#4E7FBF"/>
<stop offset="0.994792" stop-color="#96B9D9"/>
</linearGradient>
<linearGradient id="paint5_linear_1024_195" x1="43.5813" y1="38.8608" x2="77.7597" y2="71.5904" gradientUnits="userSpaceOnUse">
<stop offset="0.00520833" stop-color="#BCDFFF"/>
<stop offset="0.00530833" stop-color="#4E7FBF"/>
<stop offset="0.994792" stop-color="#96B9D9"/>
</linearGradient>
<linearGradient id="paint6_linear_1024_195" x1="4.3434" y1="131.612" x2="51.6593" y2="132.384" gradientUnits="userSpaceOnUse">
<stop offset="0.00520833" stop-color="#BCDFFF"/>
<stop offset="0.00530833" stop-color="#4E7FBF"/>
<stop offset="0.994792" stop-color="#96B9D9"/>
</linearGradient>
<linearGradient id="paint7_linear_1024_195" x1="42.9314" y1="225.264" x2="76.5407" y2="191.95" gradientUnits="userSpaceOnUse">
<stop offset="0.00520833" stop-color="#BCDFFF"/>
<stop offset="0.00530833" stop-color="#4E7FBF"/>
<stop offset="0.994792" stop-color="#96B9D9"/>
</linearGradient>
<linearGradient id="paint8_linear_1024_195" x1="188.531" y1="10.4752" x2="168.488" y2="52.3418" gradientUnits="userSpaceOnUse">
<stop offset="0.00520833" stop-color="#BCDFFF"/>
<stop offset="0.00530833" stop-color="#4E7FBF"/>
<stop offset="0.994792" stop-color="#96B9D9"/>
</linearGradient>
<linearGradient id="paint9_linear_1024_195" x1="259.971" y1="82.5253" x2="216.249" y2="98.1109" gradientUnits="userSpaceOnUse">
<stop offset="0.00520833" stop-color="#BCDFFF"/>
<stop offset="0.00530833" stop-color="#4E7FBF"/>
<stop offset="0.994792" stop-color="#96B9D9"/>
</linearGradient>
<linearGradient id="paint10_linear_1024_195" x1="16.1462" y1="79.9049" x2="57.0871" y2="101.776" gradientUnits="userSpaceOnUse">
<stop offset="0.00520833" stop-color="#BCDFFF"/>
<stop offset="0.00530833" stop-color="#4E7FBF"/>
<stop offset="0.994792" stop-color="#96B9D9"/>
</linearGradient>
<linearGradient id="paint11_linear_1024_195" x1="87.4965" y1="9.58967" x2="102.696" y2="53.4475" gradientUnits="userSpaceOnUse">
<stop offset="0.00520833" stop-color="#BCDFFF"/>
<stop offset="0.00530833" stop-color="#4E7FBF"/>
<stop offset="0.994792" stop-color="#96B9D9"/>
</linearGradient>
<linearGradient id="paint12_linear_1024_195" x1="259.819" y1="182.893" x2="217.494" y2="163.839" gradientUnits="userSpaceOnUse">
<stop offset="0.00520833" stop-color="#BCDFFF"/>
<stop offset="0.00530833" stop-color="#4E7FBF"/>
<stop offset="0.994792" stop-color="#96B9D9"/>
</linearGradient>
<linearGradient id="paint13_linear_1024_195" x1="13.7365" y1="180.58" x2="59.909" y2="168.781" gradientUnits="userSpaceOnUse">
<stop offset="0.00520833" stop-color="#BCDFFF"/>
<stop offset="0.00530833" stop-color="#4E7FBF"/>
<stop offset="0.994792" stop-color="#96B9D9"/>
</linearGradient>
<linearGradient id="paint14_linear_1024_195" x1="85.2022" y1="254.816" x2="107.944" y2="212.936" gradientUnits="userSpaceOnUse">
<stop offset="0.00520833" stop-color="#BCDFFF"/>
<stop offset="0.00530833" stop-color="#4E7FBF"/>
<stop offset="0.994792" stop-color="#96B9D9"/>
</linearGradient>
<linearGradient id="paint15_linear_1024_195" x1="187.563" y1="256.51" x2="173.223" y2="211.057" gradientUnits="userSpaceOnUse">
<stop offset="0.00520833" stop-color="#BCDFFF"/>
<stop offset="0.00530833" stop-color="#4E7FBF"/>
<stop offset="0.994792" stop-color="#96B9D9"/>
</linearGradient>
<linearGradient id="paint16_linear_1024_195" x1="137.915" y1="44.7764" x2="137.915" y2="219.736" gradientUnits="userSpaceOnUse">
<stop offset="0.4375" stop-color="#F2CB05"/>
<stop offset="0.682292" stop-color="#F2B705"/>
<stop offset="0.994792" stop-color="#F7B63E"/>
</linearGradient>
</defs>
</svg>
